<svg xmlns="http://www.w3.org/2000/svg" xmlns:xlink="http://www.w3.org/1999/xlink" style="isolation:isolate" viewBox="1032.995 55.128 141.396 180.975" width="141.396pt" height="180.975pt"><path d=" M 1100.135 191.625 L 1100.135 191.625 Q 1102.539 192.35 1104.006 191.694 L 1104.006 191.694 L 1104.006 191.694 Q 1105.474 191.037 1106.164 188.749 L 1106.164 188.749 L 1106.164 188.749 Q 1106.855 186.462 1106 185.231 L 1106 185.231 L 1106 185.231 Q 1105.144 183.999 1102.586 183.227 L 1102.586 183.227 L 1070.328 173.488 L 1074.355 160.151 L 1107.387 170.124 L 1107.387 170.124 Q 1115.684 172.629 1118.115 178.312 L 1118.115 178.312 L 1118.115 178.312 Q 1120.545 183.995 1117.888 192.796 L 1117.888 192.796 L 1117.888 192.796 Q 1115.231 201.597 1110.171 204.765 L 1110.171 204.765 L 1110.171 204.765 Q 1105.111 207.934 1096.891 205.452 L 1096.891 205.452 L 1063.703 195.433 L 1067.8 181.863 L 1100.135 191.625 Z  M 1087.019 118.201 L 1135.173 132.739 L 1131.334 145.455 L 1105.904 148.693 L 1105.717 149.313 L 1128.126 156.079 L 1124.568 167.865 L 1076.415 153.328 L 1080.371 140.223 L 1106.358 137.661 L 1106.545 137.041 L 1083.438 130.065 L 1087.019 118.201 Z  M 1094.998 109.991 L 1094.998 109.991 L 1094.998 109.991 Q 1090.528 103.777 1093.595 93.619 L 1093.595 93.619 L 1093.595 93.619 Q 1096.661 83.461 1103.722 80.812 L 1103.722 80.812 L 1103.722 80.812 Q 1110.783 78.163 1123.693 82.061 L 1123.693 82.061 L 1123.693 82.061 Q 1136.604 85.959 1141.45 92.329 L 1141.45 92.329 L 1141.45 92.329 Q 1146.295 98.699 1143.252 108.78 L 1143.252 108.78 L 1143.252 108.78 Q 1140.209 118.86 1132.749 121.431 L 1132.749 121.431 L 1132.749 121.431 Q 1125.288 124.001 1112.378 120.103 L 1112.378 120.103 L 1112.378 120.103 Q 1099.467 116.206 1094.998 109.991 Z  M 1119.706 95.41 L 1119.706 95.41 Q 1112.572 93.256 1109.712 93.62 L 1109.712 93.62 L 1109.712 93.62 Q 1106.853 93.983 1105.811 97.434 L 1105.811 97.434 L 1105.811 97.434 Q 1104.769 100.885 1106.985 102.653 L 1106.985 102.653 L 1106.985 102.653 Q 1109.201 104.422 1116.257 106.553 L 1116.257 106.553 L 1118.118 107.114 L 1118.118 107.114 Q 1125.64 109.385 1128.344 108.975 L 1128.344 108.975 L 1128.344 108.975 Q 1131.049 108.564 1132.09 105.114 L 1132.09 105.114 L 1132.09 105.114 Q 1133.132 101.663 1131.188 99.976 L 1131.188 99.976 L 1131.188 99.976 Q 1129.243 98.289 1122.187 96.159 L 1122.187 96.159 L 1119.706 95.41 Z  M 1141.288 216.296 L 1139.012 224.79 C 1136.832 232.924 1128.458 237.759 1120.323 235.58 L 1044.308 215.211 C 1036.173 213.031 1031.338 204.657 1033.518 196.522 L 1068.373 66.441 C 1070.553 58.306 1078.927 53.471 1087.062 55.651 L 1163.078 76.019 C 1171.212 78.199 1176.047 86.573 1173.868 94.708 L 1169.333 111.632 L 1141.288 216.296 Z " fill-rule="evenodd" fill="rgb(254,213,56)"/></svg>